<svg aria-hidden="true" style="position: absolute; width: 0; height: 0; overflow: hidden;" version="1.1" xmlns="http://www.w3.org/2000/svg" xmlns:xlink="http://www.w3.org/1999/xlink">
<defs>
<symbol id="icon-star-full" viewBox="0 0 20 20">
<path d="M10 15l-5.878 3.090 1.123-6.545-4.756-4.635 6.572-0.955 2.939-5.955 2.939 5.955 6.572 0.955-4.756 4.635 1.123 6.545z"></path>
</symbol>
<symbol id="icon-mail" viewBox="0 0 20 20">
<path d="M1.574 5.286c0.488 0.262 7.248 3.894 7.5 4.029s0.578 0.199 0.906 0.199c0.328 0 0.654-0.064 0.906-0.199s7.012-3.767 7.5-4.029c0.489-0.263 0.951-1.286 0.054-1.286h-16.919c-0.897 0-0.435 1.023 0.053 1.286zM18.613 7.489c-0.555 0.289-7.387 3.849-7.727 4.027s-0.578 0.199-0.906 0.199-0.566-0.021-0.906-0.199-7.133-3.739-7.688-4.028c-0.39-0.204-0.386 0.035-0.386 0.219s0 7.293 0 7.293c0 0.42 0.566 1 1 1h16c0.434 0 1-0.58 1-1 0 0 0-7.108 0-7.292s0.004-0.423-0.387-0.219z"></path>
</symbol>
<symbol id="icon-key" viewBox="0 0 20 20">
<path d="M17.691 4.725c-0.503-2.977-3.22-4.967-6.069-4.441s-5.256 2.816-4.753 5.795c0.107 0.641 0.408 1.644 0.763 2.365l-5.175 7.723c-0.191 0.285-0.299 0.799-0.242 1.141l0.333 1.971c0.058 0.342 0.372 0.572 0.7 0.514l1.516-0.281c0.328-0.059 0.744-0.348 0.924-0.639l2.047-3.311 0.018-0.022 1.386-0.256 2.39-3.879c0.785 0.139 1.912 0.092 2.578-0.031 2.848-0.526 4.087-3.67 3.584-6.649zM15.166 6.252c-0.784 1.17-1.584 0.346-2.703-0.475-1.119-0.818-2.135-1.322-1.352-2.492s2.326-1.455 3.447-0.635c1.12 0.819 1.391 2.432 0.608 3.602z"></path>
</symbol>
<symbol id="icon-warning" viewBox="0 0 32 32">
<path d="M31.576 26.211l-11.999-24c-0.677-1.355-2.061-2.211-3.577-2.211s-2.9 0.856-3.577 2.211l-11.999 24c-0.62 1.24-0.554 2.713 0.175 3.893 0.729 1.178 2.016 1.896 3.402 1.896h23.997c1.387 0 2.674-0.718 3.402-1.896 0.729-1.18 0.795-2.653 0.176-3.893zM17.998 27c0 0.553-0.447 1-1 1h-2c-0.553 0-1-0.447-1-1v-2c0-0.553 0.447-1 1-1h2c0.553 0 1 0.447 1 1v2zM17.998 19c0 0.553-0.447 1-1 1h-2c-0.553 0-1-0.447-1-1v-10c0-0.552 0.447-1 1-1h2c0.553 0 1 0.448 1 1v10z"></path>
</symbol>
<symbol id="icon-pencil" viewBox="0 0 32 32">
<path d="M27 0c2.761 0 5 2.239 5 5 0 1.126-0.372 2.164-1 3l-2 2-7-7 2-2c0.836-0.628 1.874-1 3-1zM2 23l-2 9 9-2 18.5-18.5-7-7-18.5 18.5zM22.362 11.362l-14 14-1.724-1.724 14-14 1.724 1.724z"></path>
</symbol>
<symbol id="icon-cart" viewBox="0 0 32 32">
<path d="M12 29c0 1.657-1.343 3-3 3s-3-1.343-3-3c0-1.657 1.343-3 3-3s3 1.343 3 3z"></path>
<path d="M32 29c0 1.657-1.343 3-3 3s-3-1.343-3-3c0-1.657 1.343-3 3-3s3 1.343 3 3z"></path>
<path d="M32 16v-12h-24c0-1.105-0.895-2-2-2h-6v2h4l1.502 12.877c-0.915 0.733-1.502 1.859-1.502 3.123 0 2.209 1.791 4 4 4h24v-2h-24c-1.105 0-2-0.895-2-2 0-0.007 0-0.014 0-0.020l26-3.98z"></path>
</symbol>
<symbol id="icon-bell" viewBox="0 0 32 32">
<path d="M32.047 25c0-9-8-7-8-14 0-0.58-0.056-1.076-0.158-1.498-0.526-3.532-2.88-6.366-5.93-7.23 0.027-0.123 0.041-0.251 0.041-0.382 0-1.040-0.9-1.891-2-1.891s-2 0.851-2 1.891c0 0.131 0.014 0.258 0.041 0.382-3.421 0.969-5.966 4.416-6.039 8.545-0.001 0.060-0.002 0.121-0.002 0.183 0 7-8 5-8 14 0 2.382 5.331 4.375 12.468 4.878 0.673 1.263 2.002 2.122 3.532 2.122s2.86-0.86 3.532-2.122c7.137-0.503 12.468-2.495 12.468-4.878 0-0.007-0.001-0.014-0.001-0.021l0.048 0.021zM25.82 26.691c-1.695 0.452-3.692 0.777-5.837 0.958-0.178-2.044-1.893-3.648-3.984-3.648s-3.805 1.604-3.984 3.648c-2.144-0.18-4.142-0.506-5.837-0.958-2.332-0.622-3.447-1.318-3.855-1.691 0.408-0.372 1.523-1.068 3.855-1.691 2.712-0.724 6.199-1.122 9.82-1.122s7.109 0.398 9.82 1.122c2.332 0.622 3.447 1.318 3.855 1.691-0.408 0.372-1.523 1.068-3.855 1.691z"></path>
</symbol>
<symbol id="icon-mobile" viewBox="0 0 32 32">
<path d="M23 0h-14c-1.65 0-3 1.35-3 3v26c0 1.65 1.35 3 3 3h14c1.65 0 3-1.35 3-3v-26c0-1.65-1.35-3-3-3zM12 1.5h8v1h-8v-1zM16 30c-1.105 0-2-0.895-2-2s0.895-2 2-2 2 0.895 2 2-0.895 2-2 2zM24 24h-16v-20h16v20z"></path>
</symbol>
<symbol id="icon-user" viewBox="0 0 32 32">
<path d="M18 22.082v-1.649c2.203-1.241 4-4.337 4-7.432 0-4.971 0-9-6-9s-6 4.029-6 9c0 3.096 1.797 6.191 4 7.432v1.649c-6.784 0.555-12 3.888-12 7.918h28c0-4.030-5.216-7.364-12-7.918z"></path>
</symbol>
<symbol id="icon-cog" viewBox="0 0 32 32">
<path d="M29.181 19.070c-1.679-2.908-0.669-6.634 2.255-8.328l-3.145-5.447c-0.898 0.527-1.943 0.829-3.058 0.829-3.361 0-6.085-2.742-6.085-6.125h-6.289c0.008 1.044-0.252 2.103-0.811 3.070-1.679 2.908-5.411 3.897-8.339 2.211l-3.144 5.447c0.905 0.515 1.689 1.268 2.246 2.234 1.676 2.903 0.672 6.623-2.241 8.319l3.145 5.447c0.895-0.522 1.935-0.82 3.044-0.82 3.35 0 6.067 2.725 6.084 6.092h6.289c-0.003-1.034 0.259-2.080 0.811-3.038 1.676-2.903 5.399-3.894 8.325-2.219l3.145-5.447c-0.899-0.515-1.678-1.266-2.232-2.226zM16 22.479c-3.578 0-6.479-2.901-6.479-6.479s2.901-6.479 6.479-6.479c3.578 0 6.479 2.901 6.479 6.479s-2.901 6.479-6.479 6.479z"></path>
</symbol>
<symbol id="icon-bin" viewBox="0 0 32 32">
<path d="M4 10v20c0 1.1 0.9 2 2 2h18c1.1 0 2-0.9 2-2v-20h-22zM10 28h-2v-14h2v14zM14 28h-2v-14h2v14zM18 28h-2v-14h2v14zM22 28h-2v-14h2v14z"></path>
<path d="M26.5 4h-6.5v-2.5c0-0.825-0.675-1.5-1.5-1.5h-7c-0.825 0-1.5 0.675-1.5 1.5v2.5h-6.5c-0.825 0-1.5 0.675-1.5 1.5v2.5h26v-2.5c0-0.825-0.675-1.5-1.5-1.5zM18 4h-6v-1.975h6v1.975z"></path>
</symbol>
<symbol id="icon-menu" viewBox="0 0 32 32">
<path d="M2 6h28v6h-28zM2 14h28v6h-28zM2 22h28v6h-28z"></path>
</symbol>
<symbol id="icon-heart" viewBox="0 0 32 32">
<path d="M23.6 2c-3.363 0-6.258 2.736-7.599 5.594-1.342-2.858-4.237-5.594-7.601-5.594-4.637 0-8.4 3.764-8.4 8.401 0 9.433 9.516 11.906 16.001 21.232 6.13-9.268 15.999-12.1 15.999-21.232 0-4.637-3.763-8.401-8.4-8.401z"></path>
</symbol>
<symbol id="icon-cancel-circle" viewBox="0 0 32 32">
<path d="M16 0c-8.837 0-16 7.163-16 16s7.163 16 16 16 16-7.163 16-16-7.163-16-16-16zM16 29c-7.18 0-13-5.82-13-13s5.82-13 13-13 13 5.82 13 13-5.82 13-13 13z"></path>
<path d="M21 8l-5 5-5-5-3 3 5 5-5 5 3 3 5-5 5 5 3-3-5-5 5-5z"></path>
</symbol>
<symbol id="icon-thumbs-o-down" viewBox="0 0 24 28">
<path d="M4 7c0-0.547-0.453-1-1-1s-1 0.453-1 1 0.453 1 1 1 1-0.453 1-1zM22 16c0-0.578-0.438-1.984-1.172-2 0.328-0.375 0.547-1.109 0.547-1.609 0-0.734-0.297-1.359-0.828-1.859 0.187-0.328 0.281-0.703 0.281-1.078 0-0.719-0.359-1.609-1.016-1.969 0.047-0.281 0.078-0.578 0.078-0.875 0-1.828-1.156-2.609-2.891-2.609h-2c-1.844 0-3.625 0.547-5.344 1.141-0.844 0.297-2.281 0.859-3.156 0.859h-0.5v10h0.5c1.234 0 3.094 2.672 3.797 3.578 0.391 0.484 0.766 0.969 1.203 1.422 1.516 1.594 1 3.984 2 5 2.141 0 2.5-1.172 2.5-3 0-1.844-1.5-3.172-1.5-5h5.5c1.047 0 2-0.938 2-2zM24 16.016c0 2.156-1.844 3.984-4 3.984h-2.75c0.469 0.969 0.75 1.906 0.75 3 0 1.031-0.063 1.969-0.547 2.906-0.766 1.516-2.328 2.094-3.953 2.094-0.531 0-1.031-0.219-1.406-0.578-1.563-1.531-1.078-4-2-5.016-0.594-0.625-1.141-1.297-1.672-1.984-0.469-0.609-1.531-2.016-2.141-2.422h-4.281c-1.109 0-2-0.891-2-2v-10c0-1.109 0.891-2 2-2h4.5c0.438 0 1.703-0.469 2.156-0.625 2.25-0.781 4.203-1.375 6.609-1.375h1.75c2.844 0 4.891 1.687 4.875 4.609v0.078c0.609 0.781 0.938 1.781 0.938 2.781 0 0.219-0.016 0.453-0.047 0.672 0.391 0.688 0.594 1.469 0.594 2.25 0 0.359-0.047 0.734-0.141 1.078 0.5 0.75 0.766 1.641 0.766 2.547z"></path>
</symbol>
<symbol id="icon-thumbs-o-up" viewBox="0 0 24 28">
<path d="M4 21c0-0.547-0.453-1-1-1s-1 0.453-1 1 0.453 1 1 1 1-0.453 1-1zM22 12c0-1.062-0.953-2-2-2h-5.5c0-1.828 1.5-3.156 1.5-5 0-1.828-0.359-3-2.5-3-1 1.016-0.484 3.406-2 5-0.438 0.453-0.812 0.938-1.203 1.422-0.703 0.906-2.562 3.578-3.797 3.578h-0.5v10h0.5c0.875 0 2.312 0.562 3.156 0.859 1.719 0.594 3.5 1.141 5.344 1.141h1.891c1.766 0 3-0.703 3-2.609 0-0.297-0.031-0.594-0.078-0.875 0.656-0.359 1.016-1.25 1.016-1.969 0-0.375-0.094-0.75-0.281-1.078 0.531-0.5 0.828-1.125 0.828-1.859 0-0.5-0.219-1.234-0.547-1.609 0.734-0.016 1.172-1.422 1.172-2zM24 11.984c0 0.906-0.266 1.797-0.766 2.547 0.094 0.344 0.141 0.719 0.141 1.078 0 0.781-0.203 1.563-0.594 2.25 0.031 0.219 0.047 0.453 0.047 0.672 0 1-0.328 2-0.938 2.781 0.031 2.953-1.984 4.688-4.875 4.688h-2.016c-2.219 0-4.281-0.656-6.344-1.375-0.453-0.156-1.719-0.625-2.156-0.625h-4.5c-1.109 0-2-0.891-2-2v-10c0-1.109 0.891-2 2-2h4.281c0.609-0.406 1.672-1.813 2.141-2.422 0.531-0.688 1.078-1.359 1.672-2 0.938-1 0.438-3.469 2-5 0.375-0.359 0.875-0.578 1.406-0.578 1.625 0 3.187 0.578 3.953 2.094 0.484 0.953 0.547 1.859 0.547 2.906 0 1.094-0.281 2.031-0.75 3h2.75c2.156 0 4 1.828 4 3.984z"></path>
</symbol>
<symbol id="icon-plus-circle" viewBox="0 0 24 28">
<path d="M19 15v-2c0-0.547-0.453-1-1-1h-4v-4c0-0.547-0.453-1-1-1h-2c-0.547 0-1 0.453-1 1v4h-4c-0.547 0-1 0.453-1 1v2c0 0.547 0.453 1 1 1h4v4c0 0.547 0.453 1 1 1h2c0.547 0 1-0.453 1-1v-4h4c0.547 0 1-0.453 1-1zM24 14c0 6.625-5.375 12-12 12s-12-5.375-12-12 5.375-12 12-12 12 5.375 12 12z"></path>
</symbol>
<symbol id="icon-shopping-cart" viewBox="0 0 24 24">
<path d="M11 21c0-0.552-0.225-1.053-0.586-1.414s-0.862-0.586-1.414-0.586-1.053 0.225-1.414 0.586-0.586 0.862-0.586 1.414 0.225 1.053 0.586 1.414 0.862 0.586 1.414 0.586 1.053-0.225 1.414-0.586 0.586-0.862 0.586-1.414zM22 21c0-0.552-0.225-1.053-0.586-1.414s-0.862-0.586-1.414-0.586-1.053 0.225-1.414 0.586-0.586 0.862-0.586 1.414 0.225 1.053 0.586 1.414 0.862 0.586 1.414 0.586 1.053-0.225 1.414-0.586 0.586-0.862 0.586-1.414zM7.221 7h14.57l-1.371 7.191c-0.046 0.228-0.166 0.425-0.332 0.568-0.18 0.156-0.413 0.246-0.688 0.241h-9.734c-0.232 0.003-0.451-0.071-0.626-0.203-0.19-0.143-0.329-0.351-0.379-0.603zM1 2h3.18l0.848 4.239c0.108 0.437 0.502 0.761 0.972 0.761h1.221l-0.4-2h-0.821c-0.552 0-1 0.448-1 1 0 0.053 0.004 0.105 0.012 0.155 0.004 0.028 0.010 0.057 0.017 0.084l1.671 8.347c0.149 0.751 0.57 1.383 1.14 1.811 0.521 0.392 1.17 0.613 1.854 0.603h9.706c0.748 0.015 1.455-0.261 1.995-0.727 0.494-0.426 0.848-1.013 0.985-1.683l1.602-8.402c0.103-0.543-0.252-1.066-0.795-1.17-0.065-0.013-0.13-0.019-0.187-0.018h-16.18l-0.84-4.196c-0.094-0.462-0.497-0.804-0.98-0.804h-4c-0.552 0-1 0.448-1 1s0.448 1 1 1z"></path>
</symbol>
<symbol id="icon-arrow_back_ios" viewBox="0 0 24 24">
<path d="M11.672 3.891l-8.109 8.109 8.109 8.109-1.781 1.781-9.891-9.891 9.891-9.891z"></path>
</symbol>
</defs>
</svg>
